<svg height="118.762" viewBox="0 0 127.288 118.762" width="127.288" xmlns="http://www.w3.org/2000/svg" xmlns:xlink="http://www.w3.org/1999/xlink"><clipPath id="a"><path d="m-6-3h43.988v130.42h-43.988z"/></clipPath><g clip-path="url(#a)" transform="matrix(-.65605903 -.75470958 .75470958 -.65605903 27.18644700062 112.26627047833)"><path d="m37.447 122.82a53.95 53.95 0 0 1 -19.26-15.412 74.317 74.317 0 0 1 -12.723-23.773 81.027 81.027 0 0 1 -3.792-28.63 84.813 84.813 0 0 1 6.3-28.3 67.716 67.716 0 0 1 14.9-22.611c.783-.762 1.587-1.489 2.4-2.192.837-.721.045-2.451-.8-1.724a66.446 66.446 0 0 0 -16.426 22.249 86.9 86.9 0 0 0 -7.691 28.737 83.357 83.357 0 0 0 2.626 29.829 78.509 78.509 0 0 0 12.138 25.3 58.124 58.124 0 0 0 19.2 17.117q1.339.713 2.7 1.335c.961.437 1.375-1.491.422-1.925" fill="#4446ff" transform="translate(0 2.61)"/><path d="m37.3 125.809a1.652 1.652 0 0 1 -.687-.154c-.923-.421-1.852-.879-2.761-1.363a53.586 53.586 0 0 1 -10.518-7.409 65.121 65.121 0 0 1 -9.019-10 76.152 76.152 0 0 1 -7.193-12.027 82.254 82.254 0 0 1 -7.795-28.5 85.4 85.4 0 0 1 .032-15.283 90.376 90.376 0 0 1 2.683-15.041 84.9 84.9 0 0 1 5.098-14.032 73.959 73.959 0 0 1 7.348-12.429 61.338 61.338 0 0 1 9.336-10.154 1.627 1.627 0 0 1 1.066-.417 1.739 1.739 0 0 1 1.593 1.239 2.184 2.184 0 0 1 -.555 2.418c-.858.738-1.63 1.441-2.359 2.151a59.9 59.9 0 0 0 -8.279 10.121 73.868 73.868 0 0 0 -6.39 12.156 84.083 84.083 0 0 0 -6.23 27.967 80.622 80.622 0 0 0 .615 14.4 79.236 79.236 0 0 0 3.13 13.876 73.613 73.613 0 0 0 12.55 23.452 58.821 58.821 0 0 0 8.823 8.859 47.674 47.674 0 0 0 10.073 6.271 2.093 2.093 0 0 1 1.07 2.411 1.735 1.735 0 0 1 -1.631 1.488z" fill="#454cf5" transform="translate(0 2.61)"/><path d="m.761 4.291c5.1.467 9.11.7 13.976-1.3.024 6.1 1.483 10.129 3.953 15.381.519 1.1 1.89.1 1.368-1.007a38.974 38.974 0 0 1 -3.595-16.36c0-.623-.507-1.166-1-.962a31.036 31.036 0 0 1 -14.702 2.252c-1.018-.093-1.013 1.9 0 2" fill="#4446ff" transform="translate(10.146)"/><path d="m19.33 19.852a1.711 1.711 0 0 1 -1.544-1.052 48.181 48.181 0 0 1 -2.952-7.528 29.618 29.618 0 0 1 -1.064-6.846 22.637 22.637 0 0 1 -7.558 1.186c-1.836 0-3.745-.161-5.542-.325a1.967 1.967 0 0 1 -1.67-2.178 1.759 1.759 0 0 1 1.693-1.818c.053 0 .106 0 .159.007.9.082 1.813.124 2.713.124a30.221 30.221 0 0 0 11.516-2.3 1.562 1.562 0 0 1 .6-.118 1.936 1.936 0 0 1 1.787 2 38.024 38.024 0 0 0 3.5 15.939 2.1 2.1 0 0 1 -.108 2.029 1.848 1.848 0 0 1 -1.53.88zm-17.745-16.491c1.531.135 3.117.251 4.627.251a20.58 20.58 0 0 0 7.523-1.3v-.559a31.956 31.956 0 0 1 -10.17 1.67c-.656 0-1.319-.023-1.98-.062zm13.828-1.106.077.074q-.021-.6-.025-1.209-.441.175-.884.336z" fill="#454cf5" transform="translate(10.146)"/></g></svg>