<?xml version="1.0" encoding="utf-8"?>
<!-- Generator: Adobe Illustrator 26.2.0, SVG Export Plug-In . SVG Version: 6.00 Build 0)  -->
<svg version="1.1" id="Livello_1" xmlns="http://www.w3.org/2000/svg" xmlns:xlink="http://www.w3.org/1999/xlink" x="0px" y="0px"
	 viewBox="0 0 63.9 67.1" style="enable-background:new 0 0 63.9 67.1;" xml:space="preserve">
<style type="text/css">
	.st0{fill:#4446FF;}
</style>
<g transform="translate(3382.306 269.43) rotate(160)">
	<path class="st0" d="M3103.2,1361.6c0.4-0.4,0.3-1.1-0.1-1.4c-0.4-0.3-1.1-0.3-1.4,0.1c-3.6,3.5-7.7,6.5-12.1,9
		c-0.5,0.3-1.1,0.6-1.6,0.9c-0.2,0.1-0.5,0.2-0.7,0.4c0,0-0.4,0.2-0.2,0.1c-0.1,0-0.2,0.1-0.3,0.1c-1,0.5-2.1,1-3.1,1.5
		c-2.1,0.9-4.2,1.7-6.4,2.4c-1.1,0.3-2.2,0.6-3.2,0.9c-0.6,0.2-1.2,0.3-1.8,0.4l-0.3,0.1c-0.1,0-0.1,0-0.2,0
		c-0.2,0.1-0.5,0.1-0.7,0.2c-2.3,0.5-4.5,0.8-6.8,1c-2.2,0.2-4.5,0.3-6.7,0.2c-0.3,0-0.7,0-1,0c-0.1,0-0.4,0-0.1,0l-0.5,0
		c-0.5,0-1.1-0.1-1.6-0.1c-1.1-0.1-2.3-0.2-3.4-0.4c-2.2-0.3-4.4-0.7-6.6-1.3c-0.6-0.2-1.2-0.3-1.8-0.5c-0.2-0.1-0.5-0.1-0.7-0.2
		c0.4,0.1-0.3-0.1-0.4-0.1c-1.2-0.4-2.4-0.8-3.7-1.1c-0.9-0.1-1.7,0.4-2,1.2c-0.2,0.8,0.1,1.7,0.9,2.1c1.3,0.6,2.6,1.1,4,1.5
		c1.2,0.4,2.5,0.7,3.7,1c2.5,0.6,5.1,1,7.7,1.2c9.4,0.9,18.9-0.4,27.8-3.6c4.4-1.6,8.7-3.7,12.6-6.3
		C3096.5,1368.1,3100.1,1365,3103.2,1361.6"/>
	<path class="st0" d="M3048.5,1386.4c0.5,0.4,1.2,0.3,1.5-0.1c0.4-0.5,0.3-1.2-0.1-1.5c-2.6-2.1-5.2-4.2-7.7-6.3s-5.2-4.1-7.6-6.4
		l-0.5,2.7c1.2-0.4,2.4-1,3.6-1.5c1.2-0.5,2.4-1,3.5-1.6l3.6-1.6c1.2-0.5,2.8-1,3.6-2.2c0.1-0.2,0.2-0.4,0.3-0.6
		c0.1-0.7-0.3-1.5-1.1-1.6c-1.5-0.2-2.8,0.6-4.1,1.2l-3.5,1.6c-1.2,0.5-2.4,1.1-3.6,1.7c-1.3,0.6-2.6,1.1-3.8,1.8
		c-0.1,0.1-0.2,0.2-0.3,0.3c-0.6,0.7-0.5,1.7,0.2,2.2c2.8,1.8,5.4,3.9,8,5.9C3043.2,1382.4,3045.9,1384.4,3048.5,1386.4"/>
</g>
</svg>
