<svg enable-background="new 0 0 63.9 67.1" viewBox="0 0 63.9 67.1" xmlns="http://www.w3.org/2000/svg"><g fill="#4446ff" transform="matrix(-.93969262 .34202014 -.34202014 -.93969262 3382.306 269.43)"><path d="m3103.2 1361.6c.4-.4.3-1.1-.1-1.4s-1.1-.3-1.4.1c-3.6 3.5-7.7 6.5-12.1 9-.5.3-1.1.6-1.6.9-.2.1-.5.2-.7.4 0 0-.4.2-.2.1-.1 0-.2.1-.3.1-1 .5-2.1 1-3.1 1.5-2.1.9-4.2 1.7-6.4 2.4-1.1.3-2.2.6-3.2.9-.6.2-1.2.3-1.8.4l-.3.1c-.1 0-.1 0-.2 0-.2.1-.5.1-.7.2-2.3.5-4.5.8-6.8 1-2.2.2-4.5.3-6.7.2-.3 0-.7 0-1 0-.1 0-.4 0-.1 0h-.5c-.5 0-1.1-.1-1.6-.1-1.1-.1-2.3-.2-3.4-.4-2.2-.3-4.4-.7-6.6-1.3-.6-.2-1.2-.3-1.8-.5-.2-.1-.5-.1-.7-.2.4.1-.3-.1-.4-.1-1.2-.4-2.4-.8-3.7-1.1-.9-.1-1.7.4-2 1.2-.2.8.1 1.7.9 2.1 1.3.6 2.6 1.1 4 1.5 1.2.4 2.5.7 3.7 1 2.5.6 5.1 1 7.7 1.2 9.4.9 18.9-.4 27.8-3.6 4.4-1.6 8.7-3.7 12.6-6.3 4-2.8 7.6-5.9 10.7-9.3"/><path d="m3048.5 1386.4c.5.4 1.2.3 1.5-.1.4-.5.3-1.2-.1-1.5-2.6-2.1-5.2-4.2-7.7-6.3s-5.2-4.1-7.6-6.4l-.5 2.7c1.2-.4 2.4-1 3.6-1.5s2.4-1 3.5-1.6l3.6-1.6c1.2-.5 2.8-1 3.6-2.2.1-.2.2-.4.3-.6.1-.7-.3-1.5-1.1-1.6-1.5-.2-2.8.6-4.1 1.2l-3.5 1.6c-1.2.5-2.4 1.1-3.6 1.7-1.3.6-2.6 1.1-3.8 1.8-.1.1-.2.2-.3.3-.6.7-.5 1.7.2 2.2 2.8 1.8 5.4 3.9 8 5.9 2.7 2 5.4 4 8 6"/></g></svg>