<?xml version="1.0" encoding="UTF-8"?><svg id="a" xmlns="http://www.w3.org/2000/svg" xmlns:xlink="http://www.w3.org/1999/xlink" viewBox="0 0 133.5 120.89"><defs><style>.e{fill:none;}.f{fill:#4446ff;}.g{clip-path:url(#b);}</style><clipPath id="b"><polygon class="e" points="106.67 0 133.5 35.34 26.82 120.89 0 85.54 106.67 0"/></clipPath></defs><g class="g"><path id="c" class="f" d="M28.11,119.04c-2.31-9.26-2.55-18.91-.69-28.26,3.9-20.34,15.42-38.42,32.21-50.55,8.47-6.11,18.02-10.56,28.14-13.14,9.61-2.53,19.65-2.98,29.45-1.32,1.18,.22,2.37,.48,3.53,.77,1.19,.3,2.08-1.6,.88-1.9-9.93-2.34-20.25-2.46-30.23-.35-10.5,2.16-20.51,6.28-29.49,12.14-9.1,5.91-16.95,13.54-23.11,22.47-5.91,8.57-10.19,18.15-12.61,28.28-2.36,9.62-2.63,19.63-.77,29.36,.23,1.15,.5,2.29,.79,3.41,.31,1.19,2.22,.28,1.91-.9"/><path id="d" class="f" d="M110.78,13.02c3.22,5.06,7.53,9.34,12.62,12.51l.1-1.58c-5.07,4.09-9.13,9.29-11.85,15.21-.56,1.23,1.25,1.83,1.81,.6,2.56-5.57,6.38-10.48,11.16-14.33,.52-.42,.62-1.26,.1-1.58-4.95-3.08-9.14-7.24-12.26-12.17-.64-1.01-2.31,.34-1.67,1.34"/></g></svg>