<svg xmlns="http://www.w3.org/2000/svg" width="63.917" height="67.084" viewBox="0 0 63.917 67.084"><defs><style>.a{fill:#4446ff;}</style></defs><g transform="translate(3382.306 269.43) rotate(160)"><path class="a" d="M0,1.019A58.96,58.96,0,0,0,2.252,14.877,60.259,60.259,0,0,0,7.87,27.837,64.136,64.136,0,0,0,26.855,48.5a58.844,58.844,0,0,0,6.671,4.017q1.7.874,3.453,1.632a19.07,19.07,0,0,0,4.049,1.464,1.8,1.8,0,0,0,2.09-1.026,1.764,1.764,0,0,0-.725-2.211,37.539,37.539,0,0,0-3.545-1.477c-.124-.051-.8-.338-.4-.165-.234-.1-.469-.2-.7-.305q-.839-.371-1.666-.77a58.4,58.4,0,0,1-5.874-3.263q-1.452-.919-2.85-1.921Q26.7,44,26.065,43.519l-.364-.278c.276.213.005,0-.064-.05q-.391-.307-.778-.62a62.543,62.543,0,0,1-5-4.513,63.4,63.4,0,0,1-4.584-5.141c-.159-.2-.317-.4-.474-.6a1.312,1.312,0,0,1-.113-.146l-.186-.244q-.555-.734-1.091-1.482-.987-1.368-1.9-2.786a62.908,62.908,0,0,1-3.37-5.915q-.768-1.537-1.45-3.116-.061-.14-.12-.281c.1.245-.09-.217-.088-.211q-.146-.353-.288-.709-.341-.853-.655-1.716a59.268,59.268,0,0,1-3.5-14.692A1.047,1.047,0,0,0,1.02,0,1.029,1.029,0,0,0,0,1.019" transform="translate(3044 1339)"/><path class="a" d="M60.056,109.415q4.993.2,9.983.45c3.321.171,6.681.214,9.983.621a1.586,1.586,0,0,0,1.523-2c-.479-1.3-1.119-2.557-1.7-3.82q-.828-1.807-1.682-3.6l-1.655-3.5c-.614-1.3-1.113-2.8-2.382-3.6a1.372,1.372,0,0,0-2.039,1.17c-.157,1.387.77,2.776,1.352,3.982l1.724,3.576c.56,1.16,1.12,2.32,1.694,3.473.586,1.178,1.122,2.4,1.8,3.533l1.364-2.377c-3.314.212-6.665.056-9.983.031s-6.655-.076-9.983-.139a1.1,1.1,0,0,0,0,2.2" transform="translate(3009.907 1284.817)"/></g></svg>