<svg xmlns="http://www.w3.org/2000/svg" width="54" height="45.637" viewBox="0 0 54 45.637"><defs><style>.a{fill:#ffd252;}.b{fill:#232373;font-size:39px;font-family:ZapfDingbatsITC, Zapf Dingbats;}</style></defs><g transform="translate(-472.234 -695.863)"><path class="a" d="M20.935,2A20.849,20.849,0,0,0,13.5,3.348,19.145,19.145,0,0,0,7.469,7,15.817,15.817,0,0,0,2,18.818,15.817,15.817,0,0,0,7.469,30.638,19.145,19.145,0,0,0,13.5,34.289a20.849,20.849,0,0,0,7.438,1.348H33.064A20.849,20.849,0,0,0,40.5,34.289a19.145,19.145,0,0,0,6.028-3.651A15.817,15.817,0,0,0,52,18.818,15.817,15.817,0,0,0,46.531,7,19.145,19.145,0,0,0,40.5,3.348,20.849,20.849,0,0,0,33.064,2H20.935m0-2H33.064C44.627,0,54,8.425,54,18.818S44.627,37.637,33.064,37.637H20.935C9.373,37.637,0,29.212,0,18.818S9.373,0,20.935,0Z" transform="translate(472.234 703.863)"/><text class="b" transform="translate(488.234 727.863)"><tspan x="0" y="0">✔︎</tspan></text></g></svg>