<svg height="45.637" viewBox="0 0 54 45.637" width="54" xmlns="http://www.w3.org/2000/svg"><path d="m20.935 2a20.849 20.849 0 0 0 -7.435 1.348 19.145 19.145 0 0 0 -6.031 3.652 15.817 15.817 0 0 0 -5.469 11.818 15.817 15.817 0 0 0 5.469 11.82 19.145 19.145 0 0 0 6.031 3.651 20.849 20.849 0 0 0 7.438 1.348h12.126a20.849 20.849 0 0 0 7.436-1.348 19.145 19.145 0 0 0 6.028-3.651 15.817 15.817 0 0 0 5.472-11.82 15.817 15.817 0 0 0 -5.469-11.818 19.145 19.145 0 0 0 -6.031-3.652 20.849 20.849 0 0 0 -7.436-1.348zm0-2h12.129c11.563 0 20.936 8.425 20.936 18.818s-9.373 18.819-20.936 18.819h-12.129c-11.562 0-20.935-8.425-20.935-18.819s9.373-18.818 20.935-18.818z" fill="#ffd252" transform="translate(0 8)"/><text fill="#232373" font-family="ZapfDingbatsITC, Zapf Dingbats" font-size="39" transform="translate(16 32)"><tspan x="0" y="0">✔︎</tspan></text></svg>