<svg height="30.578" viewBox="0 0 186.993 30.578" width="186.993" xmlns="http://www.w3.org/2000/svg" xmlns:xlink="http://www.w3.org/1999/xlink"><clipPath id="a"><path d="m0 0h186.993v30.578h-186.993z"/></clipPath><path d="m124.574 0-10.736 13.485v-13.485h-5.154v30.063h5.154v-13.571l11.81 13.571h6.829l-13.229-15.289 11.768-14.774z" fill="#232373" transform="translate(-56.839)"/><path d="m77.311 0h5.154v30.063h-5.154z" fill="#232373"/><g clip-path="url(#a)"><g fill="#232373"><path d="m199.39 29.875c0 .387 0 1.16-.043 1.932h-15.2a5.811 5.811 0 0 0 5.712 4.123 8.193 8.193 0 0 0 5.583-2.062l2.577 3.865a13.038 13.038 0 0 1 -8.16 2.921 10.7 10.7 0 0 1 -10.959-10.694c0-5.969 4.338-10.693 10.221-10.693a10.238 10.238 0 0 1 10.269 10.608m-5.154-1.8c-.086-1.761-1.718-4.123-5.111-4.123a4.685 4.685 0 0 0 -4.982 4.123z" transform="translate(-93.563 -10.076)"/><path d="m244.224 29.875c0 .387 0 1.16-.043 1.932h-15.2a5.812 5.812 0 0 0 5.712 4.123 8.193 8.193 0 0 0 5.583-2.062l2.577 3.865a13.038 13.038 0 0 1 -8.16 2.921 10.7 10.7 0 0 1 -10.955-10.694c0-5.969 4.338-10.693 10.221-10.693a10.239 10.239 0 0 1 10.265 10.608m-5.154-1.8c-.086-1.761-1.718-4.123-5.111-4.123a4.685 4.685 0 0 0 -4.982 4.123z" transform="translate(-117.01 -10.076)"/><path d="m284.548 33.353 3.393 3.436a11.019 11.019 0 0 1 -8.418 3.865 10.7 10.7 0 1 1 0-21.387 10.913 10.913 0 0 1 8.332 3.779l-3.565 3.178a6.328 6.328 0 0 0 -4.767-2.148 5.642 5.642 0 0 0 -5.712 5.884 5.642 5.642 0 0 0 5.712 5.884 6.011 6.011 0 0 0 5.025-2.491" transform="translate(-140.457 -10.076)"/><path d="m319.458 17.737 7.3-8.031h6.656l-8.932 9.62 9.534 10.737h-6.785l-7.773-8.89v8.89h-5.158v-30.063h5.154z" transform="translate(-164.374)"/><path d="m356.974 33.225s2.706 2.92 6.142 2.92c2.1 0 3.865-.6 3.865-1.847 0-1.331-.945-1.589-4.037-2.233-4.037-.859-7.559-2.576-7.559-6.442 0-3.178 3.178-6.356 8.761-6.356a12.991 12.991 0 0 1 7.645 2.491l-2.577 3.779a9.455 9.455 0 0 0 -5.068-1.761c-1.932 0-3.693.687-3.693 1.932s1.374 1.547 4.81 2.276c4.037.859 6.915 2.19 6.915 6.4 0 3.478-3.694 6.27-8.89 6.27a12.7 12.7 0 0 1 -9.19-3.693z" transform="translate(-185.185 -10.076)"/></g><path d="m51.76 14.224 14.008-14.224h-6.388l-14.194 14.15 15.029 15.934h6.527z" fill="#4446ff" transform="translate(-23.631)"/><path d="m7.875.512-.515-.512h-6.386l14.008 14.225-14.982 15.86h6.527l15.028-15.934z" fill="#59d8a1"/><path d="m0 0h5.032v10.989h-5.032z" fill="#4446ff" transform="translate(19.039 19.096)"/><path d="m0 0h5.032v8.402h-5.032z" fill="#4446ff" transform="translate(19.039)"/></g></svg>