<svg height="19.856" viewBox="0 0 121.424 19.856" width="121.424" xmlns="http://www.w3.org/2000/svg" xmlns:xlink="http://www.w3.org/1999/xlink"><clipPath id="a"><path d="m0 0h121.424v19.856h-121.424z"/></clipPath><path d="m119 0-6.97 8.757v-8.757h-3.347v19.522h3.347v-8.813l7.669 8.813h4.434l-8.589-9.928 7.641-9.594z" fill="#fafafa" transform="translate(-75.019)"/><path d="m50.202 0h3.347v19.521h-3.347z" fill="#fafafa"/><g clip-path="url(#a)"><g fill="#fafafa"><path d="m192.206 26.155c0 .251 0 .753-.028 1.255h-9.872a3.774 3.774 0 0 0 3.709 2.678 5.32 5.32 0 0 0 3.625-1.339l1.673 2.51a8.466 8.466 0 0 1 -5.3 1.9 6.948 6.948 0 0 1 -7.111-6.944 6.656 6.656 0 1 1 13.3-.056m-3.347-1.171a3.344 3.344 0 0 0 -6.554 0z" transform="translate(-123.488 -13.299)"/><path d="m237.04 26.155c0 .251 0 .753-.028 1.255h-9.872a3.774 3.774 0 0 0 3.709 2.678 5.32 5.32 0 0 0 3.625-1.339l1.673 2.51a8.466 8.466 0 0 1 -5.3 1.9 6.948 6.948 0 0 1 -7.111-6.944 6.656 6.656 0 1 1 13.3-.056m-3.347-1.171a3.344 3.344 0 0 0 -6.554 0z" transform="translate(-154.434 -13.299)"/><path d="m278.946 28.414 2.2 2.231a7.155 7.155 0 0 1 -5.466 2.51 6.946 6.946 0 1 1 0-13.888 7.086 7.086 0 0 1 5.41 2.454l-2.315 2.064a4.109 4.109 0 0 0 -3.1-1.395 3.663 3.663 0 0 0 -3.709 3.821 3.664 3.664 0 0 0 3.709 3.821 3.9 3.9 0 0 0 3.263-1.618" transform="translate(-185.381 -13.299)"/><path d="m317.651 11.517 4.741-5.217h4.322l-5.8 6.247 6.191 6.972h-4.405l-5.048-5.773v5.773h-3.352v-19.519h3.347z" transform="translate(-216.947)"/><path d="m355.965 28.33a6.216 6.216 0 0 0 3.988 1.9c1.366 0 2.51-.391 2.51-1.2 0-.865-.613-1.032-2.621-1.45-2.621-.558-4.908-1.673-4.908-4.183 0-2.064 2.064-4.127 5.689-4.127a8.436 8.436 0 0 1 4.964 1.618l-1.673 2.454a6.139 6.139 0 0 0 -3.291-1.143c-1.255 0-2.4.446-2.4 1.255s.892 1 3.123 1.478c2.621.558 4.49 1.422 4.49 4.155 0 2.259-2.4 4.071-5.773 4.071a8.244 8.244 0 0 1 -5.968-2.4z" transform="translate(-244.414 -13.299)"/></g><path d="m49.455 9.237 9.096-9.237h-4.151l-9.214 9.189 9.758 10.347h4.238z" fill="#4446ff" transform="translate(-31.19)"/><path d="m5.114.333-.334-.333h-4.148l9.1 9.237-9.732 10.298h4.238l9.762-10.346z" fill="#80d5a5"/><path d="m0 0h3.267v7.135h-3.267z" fill="#4446ff" transform="translate(12.363 12.4)"/><path d="m0 0h3.267v5.456h-3.267z" fill="#4446ff" transform="translate(12.363)"/></g></svg>